PathFileType	4	(X/Y/Z)	C:/Users/opensim2020/Desktop/walking_exp_matlab/subject06_walking19_straight_01.trc	
DataRate	CameraRate	NumFrames	NumMarkers	Units	OrigDataRate	OrigDataStartFrame	OrigNumFrames	
100.00	100.00	7	49	mm	100.00	1274	472	
Frame#	Time	LFHD			RFHD			LBHD			RBHD			C7			T10			CLAV			STRN			RBAK			LSHO			LUPA			LELB			LFRM			LWRA			LWRB			LFIN			RSHO			RUPA			RELB			RFRM			RWRA			RWRB			RFIN			LASI			RASI			LPSI			RPSI			LTHI			LKNE			LTIB			LANK			LHEE			LTOE			RTHI			RKNE			RTIB			RANK			RHEE			RTOE			*39			*40			*41			*42			*43			*44			*45			*46			*47			*48			
		X1	Y1	Z1	X2	Y2	Z2	X3	Y3	Z3	X4	Y4	Z4	X5	Y5	Z5	X6	Y6	Z6	X7	Y7	Z7	X8	Y8	Z8	X9	Y9	Z9	X10	Y10	Z10	X11	Y11	Z11	X12	Y12	Z12	X13	Y13	Z13	X14	Y14	Z14	X15	Y15	Z15	X16	Y16	Z16	X17	Y17	Z17	X18	Y18	Z18	X19	Y19	Z19	X20	Y20	Z20	X21	Y21	Z21	X22	Y22	Z22	X23	Y23	Z23	X24	Y24	Z24	X25	Y25	Z25	X26	Y26	Z26	X27	Y27	Z27	X28	Y28	Z28	X29	Y29	Z29	X30	Y30	Z30	X31	Y31	Z31	X32	Y32	Z32	X33	Y33	Z33	X34	Y34	Z34	X35	Y35	Z35	X36	Y36	Z36	X37	Y37	Z37	X38	Y38	Z38	X39	Y39	Z39	X40	Y40	Z40	X41	Y41	Z41	X42	Y42	Z42	X43	Y43	Z43	X44	Y44	Z44	X45	Y45	Z45	X46	Y46	Z46	X47	Y47	Z47	X48	Y48	Z48	X49	Y49	Z49	

414	4.130	1381.04248	1048.29565	1671.72693	1511.89307	1056.67017	1659.23364	1387.78345	915.75659	1616.05847	1516.90784	925.41223	1608.43921	1443.79187	917.04694	1461.66064	1453.24451	876.45709	1133.42261	1436.88159	1023.39447	1381.19189	1428.99182	1057.71179	1204.50208	1530.46790	846.89246	1292.80493	1279.22852	959.25464	1413.36279	1205.45789	941.91315	1212.37134	1191.86169	932.85522	1100.90894	1165.72302	962.61157	953.92114	1200.75549	1034.27466	844.36475	1168.69800	972.32446	834.68964	1161.65283	1020.44794	758.48181	1599.31787	993.68701	1414.98462	1692.50171	968.57550	1216.87280	1701.64355	985.42352	1095.80750	1705.59424	1024.10400	981.55603	1649.11328	1102.57068	861.98767	1698.69727	1059.64563	848.89819	1687.69617	1112.29102	784.41449	1329.50757	1043.47766	971.54755	1549.84570	1053.34741	969.80444	1364.37720	888.24640	1001.16827	1532.82544	900.72131	1003.27228	1265.85486	1016.84320	660.51813	1290.55176	1057.37744	502.09534	1303.44116	988.47406	258.92679	1343.24255	968.02234	86.90832	1394.81165	932.90192	73.36225	1324.54187	1105.18091	49.96833	1592.02185	977.63666	635.82996	1565.03088	967.90179	510.86832	1557.24280	889.03955	256.13779	1508.89453	842.71155	75.64696	1468.70728	795.25012	55.41746	1496.97717	991.11182	38.38670	1446.29846	951.19025	1707.99780																											 
415	4.140	1380.22461	1053.65637	1670.90100	1511.14502	1062.26611	1658.74304	1387.30859	921.11487	1615.52600	1516.49438	930.88983	1608.26270	1443.79993	922.19580	1461.10449	1453.51697	881.91400	1132.60669	1436.72888	1028.60986	1380.60815	1429.04309	1062.97510	1203.97559	1530.67749	852.22070	1292.26904	1279.11145	964.20032	1412.59717	1205.48328	945.87750	1211.68213	1192.18567	936.11548	1100.19360	1165.85083	964.77350	952.91809	1200.66370	1035.50525	842.78107	1168.62219	973.20441	833.64203	1161.72400	1020.61798	756.92084	1599.24329	999.09430	1414.65210	1692.64319	974.09283	1216.61633	1701.82874	991.04492	1095.55933	1705.57153	1030.07251	981.46930	1648.63940	1108.72437	862.21991	1698.49438	1066.05359	849.03241	1687.14197	1118.81250	784.69104	1329.58557	1048.75916	970.87756	1549.92102	1058.35474	969.11194	1364.31421	893.45966	1000.75055	1532.74548	905.82562	1002.69238	1265.52087	1022.59430	660.05725	1290.86804	1064.92224	502.13745	1303.40063	1004.02539	256.77652	1342.86719	989.58435	84.14606	1394.55286	955.05811	69.83216	1324.84656	1127.81763	50.41861	1591.69434	981.53857	635.10052	1564.92029	971.25201	510.29852	1557.09583	890.70135	255.95403	1508.91492	842.98639	75.76927	1468.75208	795.37866	55.72253	1496.98425	991.08691	38.45852	1445.56165	956.79462	1707.54822																											 
416	4.150	1379.38049	1058.89453	1669.98120	1510.29016	1067.83862	1658.19287	1386.82178	926.36969	1614.91663	1516.00037	936.39246	1607.95093	1443.72729	927.43311	1460.45129	1453.33313	886.92505	1132.37500	1436.57056	1033.87268	1379.98132	1429.05750	1068.26379	1203.38391	1530.83752	857.59344	1291.66467	1278.95764	969.09857	1411.77783	1205.61780	949.79858	1210.85852	1192.51611	939.38159	1099.49670	1166.16772	966.68829	951.95959	1200.69446	1036.71936	841.12268	1168.98596	974.56598	832.66260	1161.68750	1021.15668	755.52594	1599.10083	1004.49091	1414.23303	1692.48413	979.49445	1216.17285	1701.97083	996.64178	1095.20496	1705.83289	1036.21387	981.38538	1648.25537	1114.76575	862.29004	1698.03186	1072.22485	848.85645	1686.56897	1125.20459	784.75494	1329.63733	1054.12207	970.13080	1549.93738	1063.34583	968.30518	1364.14038	898.84161	1000.14819	1532.70752	910.80872	1002.15399	1265.34497	1029.41724	659.30029	1291.10486	1072.42090	502.06079	1303.13086	1019.60681	254.87077	1342.32874	1010.93524	81.71108	1393.75891	976.29199	66.60004	1325.35217	1150.27698	51.10178	1591.20569	985.46234	634.34265	1564.79309	974.56720	509.61539	1557.00891	892.37695	255.79936	1508.88721	843.22266	75.96395	1468.72510	795.48804	56.04050	1497.13770	991.37793	38.60315	1444.77295	962.34131	1707.03308																											 
417	4.160	1378.50073	1064.40527	1669.13086	1511.41809	1076.22717	1658.38977	1386.35474	931.63373	1614.32471	1515.50012	941.91534	1607.61731	1443.51855	932.70862	1459.76379	1453.28125	892.12451	1131.82239	1436.44019	1039.22375	1379.40271	1429.02698	1073.51953	1202.69775	1530.99170	862.92566	1291.11365	1278.72949	974.07135	1410.90820	1205.73169	953.82758	1210.05334	1192.70117	942.42297	1098.74988	1166.41821	968.86340	951.03870	1200.74548	1038.08887	839.63501	1169.14771	975.51221	831.62469	1162.11572	1021.30096	753.93024	1598.90820	1009.92377	1413.76123	1692.77747	985.08795	1215.90454	1702.04114	1002.19727	1094.83081	1705.54211	1041.99512	981.07257	1647.79492	1120.73145	862.24152	1697.74475	1078.35840	848.67377	1686.17590	1131.50696	784.79169	1329.71509	1059.59875	969.48987	1549.98181	1068.32642	967.51483	1363.76599	903.87170	999.84503	1532.60535	915.65723	1001.50244	1265.09607	1034.97302	658.88776	1291.42065	1079.83752	501.89206	1302.84924	1034.89941	253.14771	1341.86414	1032.09155	79.59148	1393.25916	997.85352	63.96470	1325.74915	1172.46375	51.93097	1591.08264	989.29877	633.76831	1564.78235	977.85022	508.99017	1557.04053	893.82977	255.56337	1508.85156	843.48694	76.18736	1468.61633	795.61133	56.43296	1497.32458	991.57422	38.64440	1444.00769	967.90802	1706.48718																											 
418	4.170	1377.61902	1069.80042	1668.13904	1508.49646	1078.93933	1656.91565	1385.77307	937.01672	1613.61572	1514.95227	947.42896	1607.21155	1443.33289	938.00439	1459.06677	1453.19824	897.36633	1131.02612	1436.17859	1044.54724	1378.69019	1428.96216	1078.83337	1201.96667	1531.08386	868.35052	1290.51611	1278.44031	979.15216	1410.03906	1205.82190	957.87317	1209.17529	1192.95044	945.79224	1097.92786	1166.77185	970.83392	949.92554	1200.79907	1039.39441	838.06445	1169.52319	976.54303	830.49854	1162.10632	1022.10364	752.58398	1598.70276	1015.44556	1413.21802	1692.56738	990.53534	1215.36475	1702.07690	1007.78003	1094.34534	1705.55823	1047.75696	980.72583	1647.36975	1126.57788	862.07666	1697.39929	1084.37097	848.36267	1685.52637	1137.52747	784.52216	1329.76099	1065.07727	968.68872	1550.03210	1073.23474	966.68378	1363.49268	909.05145	999.14276	1532.36938	920.69189	1000.86407	1264.84167	1041.56641	658.06915	1291.53162	1087.31409	501.72723	1302.54785	1049.98792	251.61325	1340.99487	1052.82922	78.19744	1392.26990	1018.52368	61.75604	1326.26917	1194.25037	53.31812	1590.92163	993.11444	633.18225	1564.86182	980.97400	508.40598	1557.01782	895.26215	255.49084	1508.83594	843.71118	76.43354	1468.52100	795.72034	56.67145	1497.21387	991.51721	38.45982	1443.13330	973.47083	1705.82959																											 
419	4.180	1376.73779	1075.25464	1667.17883	1509.76331	1087.49854	1657.14807	1385.17773	942.37592	1612.83850	1514.33569	952.89850	1606.73218	1442.99084	943.40631	1458.27649	1453.23059	902.18970	1129.87280	1435.77002	1049.77844	1377.84802	1428.85815	1084.12280	1201.20911	1531.06384	873.72742	1289.84961	1278.14551	984.31244	1409.07788	1205.87317	962.00482	1208.31006	1193.49463	949.35199	1097.08057	1166.98669	973.05243	948.89368	1200.77393	1040.97437	836.53961	1169.80029	977.77673	829.49677	1162.58960	1022.38116	750.99091	1598.43726	1020.96606	1412.59570	1692.70154	996.12286	1214.90869	1702.06812	1013.32336	1093.85059	1705.42737	1053.47534	980.29108	1646.98853	1132.31445	861.77728	1697.11389	1090.26074	847.97430	1685.07410	1143.51929	784.24445	1329.83655	1070.59094	967.85925	1550.06140	1078.07141	965.91156	1363.02966	914.34790	998.35693	1532.16003	925.38171	1000.16034	1264.71643	1047.09888	657.44690	1291.82324	1094.50757	501.51532	1302.26538	1064.60266	250.28983	1340.49695	1073.11401	76.99253	1391.45288	1038.92542	59.92666	1326.85767	1215.38843	54.98685	1590.85889	996.86169	632.58234	1564.93555	984.03906	507.82233	1556.90686	896.62781	255.39581	1508.75952	843.87042	76.65592	1468.49646	795.75671	57.02580	1497.28784	991.55902	38.38836	1442.27136	979.03564	1705.16504																											 
420	4.190	1375.84277	1080.71936	1666.22595	1506.76782	1090.22864	1655.55920	1384.54834	947.84656	1612.03516	1513.70386	958.49316	1606.23694	1442.77026	948.71777	1457.61719	1452.76404	907.67029	1129.43701	1435.51331	1055.16406	1377.13818	1428.79907	1089.34070	1200.41638	1530.96777	879.08673	1289.14636	1277.80115	989.53864	1408.10266	1206.10608	966.15430	1207.32385	1193.62842	952.40485	1096.25720	1167.35681	975.15576	947.90741	1200.81982	1042.52197	834.98981	1170.21082	979.48718	828.49890	1162.88379	1023.01880	749.51062	1598.12439	1026.54810	1411.96973	1692.55774	1001.66461	1214.34460	1702.03174	1018.87848	1093.27710	1705.10645	1059.11487	979.72870	1646.57129	1137.96228	861.37244	1696.78674	1096.10474	847.51666	1684.61890	1149.34607	783.84668	1329.94373	1076.17480	967.08636	1550.17664	1082.92725	965.14832	1362.58582	919.75409	997.44672	1531.67480	930.28534	999.34070	1264.49377	1053.19263	656.75433	1291.89758	1101.80457	501.32309	1301.92126	1078.88184	249.26404	1339.90918	1092.80212	76.27394	1390.73767	1058.82959	58.66362	1327.53625	1236.01147	56.98307	1590.64050	1000.65155	631.99591	1564.98474	987.11121	507.27451	1556.81128	898.01599	255.32368	1508.72229	844.10699	76.96550	1468.39197	795.88995	57.44512	1497.10913	991.48743	38.20648	1441.39990	984.64551	1704.44934																											 
